<?xml version="1.0" encoding="UTF-8"?>
<svg width="33px" height="32px" viewBox="0 0 33 32" version="1.1" xmlns="http://www.w3.org/2000/svg" xmlns:xlink="http://www.w3.org/1999/xlink">
    <!-- Generator: Sketch 52.5 (67469) - http://www.bohemiancoding.com/sketch -->
    <title>Estrela Copy 6</title>
    <desc>Created with Sketch.</desc>
    <g id="Page-1" stroke="none" stroke-width="1" fill="none" fill-rule="evenodd">
        <g id="Mobile-Copy-24" transform="translate(-121.000000, -342.000000)" stroke-width="2">
            <g id="estrelas-copy" transform="translate(79.000000, 343.000000)">
                <g id="Estrela-Copy-6" transform="translate(43.000000, 0.000000)">
                    <path d="M23.7980769,18.3069897 C23.5930402,18.5234151 23.506418,18.8271538 23.5672379,19.1202105 L25.6733562,29.3177491 L16.3619266,24.7997523 C16.0946878,24.6701757 15.7809126,24.6813221 15.5233497,24.8299404 L6.5524192,30 L7.93791422,19.6775292 C7.97753928,19.3812215 7.870183,19.0839848 7.65040211,18.8828857 L1.77635684e-13,11.8806409 L10.1675153,10.0191965 C10.4596349,9.96578683 10.7066005,9.77072529 10.8282402,9.49810357 L15.0708867,-3.55271368e-15 L19.9691898,9.17160771 C20.1097206,9.43494078 20.370048,9.61188947 20.6649322,9.64439972 L30.9375,10.7766855 L23.7980769,18.3069897 Z" id="Shape-Copy" stroke="#090000" fill="#F8E71C" fill-rule="nonzero" stroke-linecap="round" stroke-linejoin="round"></path>
                    <path d="M8.44168106,12.3513466 C8.46094982,14.0484921 9.02625797,15.8868988 10.1376055,17.8665667 C11.248953,19.8462346 12.645423,21.6592162 14.3270154,23.3055115 L9.05420937,26.2905153 L9.87271879,18.37681 L4.22147451,13.1169315 L8.44168106,12.3513466 Z" id="Path-2" stroke="#DFD883" fill="#DFD883" stroke-linecap="square"></path>
                </g>
            </g>
        </g>
    </g>
</svg>