<svg width="102" height="115" viewBox="0 0 102 115" fill="none" xmlns="http://www.w3.org/2000/svg">
<path d="M70.6995 97.7687H5.34282C3.2194 97.7687 1.49837 96.0508 1.49837 93.9311V7.58351C1.49837 5.46388 3.2194 3.74591 5.34282 3.74591H70.6995C72.8229 3.74591 74.544 5.46388 74.544 7.58351V93.9311C74.544 96.0505 72.8227 97.7687 70.6995 97.7687Z" fill="#7F8499"/>
<path d="M28.5613 24.9706L22.8195 21.1217L17.0778 24.9706V3.80124C17.0778 2.73852 17.9348 1.87677 18.9917 1.87677H26.6476C27.7045 1.87677 28.5615 2.73852 28.5615 3.80124V24.9706H28.5613Z" fill="#FFDC64"/>
<path d="M41.9589 40.6475L44.7121 46.2566L50.8679 47.1561L46.4136 51.522L47.4649 57.6873L41.9589 54.7764L36.4526 57.6873L37.5043 51.522L33.0496 47.1561L39.2058 46.2566L41.9589 40.6475Z" fill="#FFDC64"/>
<path d="M59.8448 40.6475L62.5978 46.2566L68.7541 47.1561L64.2993 51.522L65.3511 57.6873L59.8448 54.7764L54.3388 57.6873L55.3903 51.522L50.9357 47.1561L57.0918 46.2566L59.8448 40.6475Z" fill="#FFDC64"/>
<path d="M24.0727 40.6475L26.826 46.2566L32.982 47.1561L28.5275 51.522L29.579 57.6873L24.0727 54.7764L18.5667 57.6873L19.6184 51.522L15.1637 47.1561L21.3199 46.2566L24.0727 40.6475Z" fill="#FFDC64"/>
<path d="M8.99023 97.7687H5.2443C3.1753 97.7687 1.49837 96.0508 1.49837 93.9311V7.58351C1.49837 5.46388 3.1753 3.74591 5.2443 3.74591H8.99023V97.7687Z" fill="#707487"/>
<path d="M18.873 2C17.8387 2 17 2.86662 17 3.93536V25.2248L22.6189 21.354V2H18.873Z" fill="#FFC850"/>
<path d="M43.8274 88.1363C43.8274 91.5032 44.3839 94.7356 45.3783 97.7687H70.7045C72.8249 97.7687 74.544 96.0434 74.544 93.9158V57.3127C57.5798 57.3127 43.8274 71.113 43.8274 88.1363Z" fill="#707487"/>
<circle cx="74.3567" cy="88.2166" r="24.9104" fill="#FFDC64"/>
<path d="M80.5298 108.966C66.7962 108.966 55.6631 97.7888 55.6631 84.0011C55.6631 76.6821 58.8192 70.1199 63.8169 65.5538C55.3361 69.5297 49.4463 78.1447 49.4463 88.1618C49.4463 101.95 60.5794 113.127 74.3129 113.127C80.7566 113.127 86.6086 110.645 91.0261 106.609C87.8335 108.106 84.2858 108.966 80.5298 108.966Z" fill="#FFC850"/>
<path d="M83.0706 83.5511H74.7057C77.1604 81.4728 78.5611 78.7113 79.0869 76.7916C79.4604 75.4278 78.8814 73.9101 77.5945 73.3183C75.9215 72.5488 74.0193 73.4822 73.5645 75.1847C73.4148 75.747 71.9493 80.6819 66.7651 80.6819C64.6477 80.6819 62.9316 82.3944 62.9316 84.5073V96.94C62.9316 99.0529 64.6477 100.765 66.7651 100.765H79.4032C82.0984 100.765 84.4319 98.8975 85.0165 96.2719L86.8126 88.2061C87.345 85.8174 85.523 83.5511 83.0706 83.5511Z" fill="white"/>
<path fill-rule="evenodd" clip-rule="evenodd" d="M76.556 61.5234V7.5626C76.556 4.45153 74.0261 1.92063 70.9163 1.92063H30.0115C29.3763 0.776699 28.157 0 26.7587 0H19.079C17.6807 0 16.4613 0.776699 15.8259 1.92063H5.6397C2.52988 1.92063 0 4.45153 0 7.5626V93.9927C0 97.1038 2.52988 99.6347 5.6397 99.6347H50.5508C54.8391 108.707 64.076 115 74.756 115C89.5107 115 101.515 102.991 101.515 88.2306C101.515 74.0751 90.4746 62.4526 76.556 61.5234ZM19.079 3.60116H26.7587C26.8249 3.60116 26.8786 3.65484 26.8786 3.7211V21.4839L23.9172 19.5087C23.6147 19.307 23.2667 19.2061 22.9187 19.2061C22.5707 19.2061 22.2227 19.307 21.9203 19.5087L18.9589 21.4839V3.72133C18.9591 3.65507 19.0128 3.60116 19.079 3.60116ZM3.59972 7.5626V93.9927C3.59972 95.118 4.51486 96.0333 5.6397 96.0333H7.67969V5.5218H5.6397C4.51486 5.5218 3.59972 6.4373 3.59972 7.5626ZM11.2794 5.52202H15.3591V24.8488C15.3591 25.5129 15.7244 26.1232 16.3098 26.4365C16.8951 26.7499 17.6052 26.7155 18.1573 26.3469L22.9187 23.1714L27.6801 26.3469C27.9812 26.5479 28.3294 26.6495 28.6788 26.6495C28.97 26.6495 29.2618 26.5789 29.5281 26.4365C30.1132 26.1232 30.4787 25.5129 30.4787 24.8488V5.52202H70.9167C72.0415 5.52202 72.9567 6.43753 72.9567 7.56282V61.5234C59.0381 62.4529 47.998 74.0753 47.998 88.2308C47.998 90.9441 48.405 93.5637 49.1585 96.0335H11.2794V5.52202ZM51.5973 88.2308C51.5973 101.006 61.9862 111.399 74.756 111.399C87.5257 111.399 97.9147 101.005 97.9147 88.2306C97.9147 75.4557 87.5255 65.0626 74.756 65.0626C61.9864 65.0626 51.5973 75.4559 51.5973 88.2308Z" fill="black"/>
<path fill-rule="evenodd" clip-rule="evenodd" d="M78.7187 81.7306H83.1151C84.8415 81.7306 86.451 82.5009 87.5315 83.8447C88.6118 85.188 89.0166 86.9223 88.642 88.6034L86.8358 96.7106C86.0582 100.201 83.0119 102.638 79.4278 102.638H66.7201C63.5983 102.638 61.0586 100.105 61.0586 96.991V84.4947C61.0586 81.3806 63.5983 78.8472 66.7201 78.8472C68.3487 78.8472 69.6242 78.2368 70.6195 76.9809C71.4588 75.9218 71.7773 74.7871 71.8109 74.6612C72.169 73.3201 73.0987 72.2124 74.3618 71.6202C75.6276 71.0266 77.0865 71.0233 78.3651 71.6112C80.4017 72.5474 81.4711 74.9564 80.8524 77.2143C80.662 77.9097 80.074 79.7317 78.7187 81.7306ZM83.3082 95.9284L85.1143 87.8212C85.2497 87.2128 85.1032 86.5855 84.7126 86.0999C84.3218 85.6143 83.7399 85.3355 83.1153 85.3355H74.7044C73.9464 85.3355 73.2691 84.8636 73.0081 84.154C72.7471 83.4445 72.9576 82.6477 73.5353 82.1587C75.6625 80.3583 76.9091 77.9331 77.3666 76.2637C77.5226 75.6947 77.2968 75.0892 76.8525 74.8849C76.6788 74.8048 76.5158 74.7765 76.372 74.7765C76.1674 74.7765 76.0015 74.8338 75.8985 74.8822C75.6028 75.0207 75.3855 75.2779 75.3028 75.5877C75.1159 76.2891 73.2847 82.4514 66.7201 82.4514C65.5909 82.4514 64.6722 83.3678 64.6722 84.4942V96.9905C64.6722 98.1169 65.5909 99.0333 66.7201 99.0333H79.4278C81.3052 99.0333 82.9007 97.7565 83.3082 95.9284Z" fill="black"/>
<path fill-rule="evenodd" clip-rule="evenodd" d="M48.1653 51.8622L49.0595 57.0807C49.1753 57.7562 48.8978 58.4386 48.3423 58.8408C48.0291 59.0689 47.6578 59.1848 47.285 59.1848C46.9989 59.1848 46.7118 59.1168 46.4484 58.9782L41.7663 56.5144L37.0843 58.9782C36.4783 59.2973 35.744 59.2443 35.1903 58.8412C34.6362 58.4388 34.3591 57.7562 34.4747 57.0807L35.3689 51.8622L32.8027 49.3581L30.2364 51.8622L31.1306 57.0807C31.2462 57.7562 30.9689 58.4384 30.415 58.8412C30.1018 59.0694 29.7305 59.1853 29.3576 59.1853C29.0716 59.1853 28.7844 59.1172 28.521 58.9787L23.8392 56.5148L19.1572 58.9787C18.5512 59.2978 17.8169 59.2448 17.2632 58.8417C16.7091 58.4393 16.4321 57.7566 16.5476 57.0811L17.4418 51.8626L13.654 48.1668C13.1638 47.6883 12.9872 46.9731 13.1988 46.3214C13.4104 45.6697 13.973 45.1945 14.6505 45.0962L19.8854 44.3347L22.2266 39.5866C22.5297 38.9722 23.155 38.5831 23.8394 38.5831C24.5239 38.5831 25.1492 38.9722 25.4522 39.5866L27.7933 44.3347L32.8033 45.0634L37.8134 44.3347L40.1544 39.5866C40.4575 38.9722 41.0825 38.5831 41.7672 38.5831C42.4517 38.5831 43.0769 38.9722 43.38 39.5866L45.7211 44.3347L50.7311 45.0634L55.7409 44.3347L58.082 39.5866C58.385 38.9722 59.0101 38.5831 59.6948 38.5831C60.3792 38.5831 61.0045 38.9722 61.3076 39.5866L63.6488 44.3347L68.8837 45.0962C69.5612 45.1948 70.1238 45.6697 70.3354 46.3214C70.547 46.9731 70.3704 47.6885 69.8802 48.1668L66.0924 51.8626L66.9866 57.0811C67.1021 57.7566 66.8249 58.4388 66.271 58.8417C65.7175 59.2445 64.9832 59.2978 64.377 58.9787L59.695 56.5148L55.0132 58.9787C54.7502 59.1168 54.4626 59.1853 54.1766 59.1853C53.8037 59.1853 53.4326 59.0692 53.1192 58.8412C52.5651 58.4388 52.288 57.7562 52.4036 57.0807L53.2978 51.8622L50.7315 49.3581L48.1653 51.8622ZM58.5488 46.7763C58.287 47.3079 57.7804 47.6761 57.1947 47.7613L54.6311 48.1342L56.4864 49.9446C56.9104 50.3581 57.1038 50.954 57.0038 51.5381L56.5656 54.0943L58.8589 52.8875C59.1209 52.7498 59.4083 52.6809 59.6957 52.6809C59.9828 52.6809 60.2704 52.7496 60.5325 52.8875L62.8259 54.0943L62.3878 51.5381C62.2877 50.9543 62.4811 50.3583 62.9051 49.9446L64.7604 48.1342L62.1962 47.7613C61.6104 47.6759 61.1041 47.3074 60.8421 46.7763L59.6954 44.4506L58.5488 46.7763ZM27.0498 49.9444C26.6258 50.3581 26.4324 50.954 26.5325 51.5379L26.9706 54.0941L24.6774 52.8873C24.1531 52.6117 23.5276 52.6117 23.0035 52.8873L20.7101 54.0941L21.1482 51.5379C21.2483 50.9538 21.0549 50.3578 20.6309 49.9444L18.7755 48.134L21.3398 47.761C21.9256 47.6759 22.4319 47.3076 22.6939 46.7761L23.8406 44.4504L24.9872 46.7761C25.249 47.3072 25.7556 47.6757 26.3413 47.761L28.9056 48.134L27.0498 49.9444ZM44.4602 51.5379C44.3602 50.954 44.5536 50.3581 44.9776 49.9444L46.8331 48.134L44.2689 47.761C43.6831 47.6757 43.1765 47.3072 42.9147 46.7761L41.7681 44.4504L40.6215 46.7761C40.3597 47.3076 39.8531 47.6759 39.2673 47.761L36.7031 48.134L38.5586 49.9444C38.9827 50.3578 39.176 50.9538 39.076 51.5379L38.6378 54.0941L40.9313 52.8873C41.1933 52.7496 41.4809 52.6807 41.7681 52.6807C42.0553 52.6807 42.3429 52.7494 42.6049 52.8873L44.8984 54.0941L44.4602 51.5379Z" fill="black"/>
</svg>
